# xmcd
#
# Track frame offsets: 
#        150
#        14728
#        27715
#        39626
#        54596
#        67039
#        80677
#        92892
#        106870
#        121483
#        134597
#        147472
#        160272
#        173772
#        187428
#        199865
#        213065
#        225971
#
# Disc length: 3183 seconds
#
# Revision: 2
# Processed by: cddbd v1.5.2PL0 Copyright (c) Steve Scherf et al.
# Submitted via: ExactAudioCopy v0.95b2
#
DISCID=100c6d12
DTITLE=Georgia Tom Dorsey - Georgia Tom Dorsey: The Essential 
DYEAR=2002
DGENRE=Blues
TTITLE0=Do It Some More - w Kansas City Kitty 
TTITLE1=Grievin' Me Blues 
TTITLE2=We Don't Sell Here No More - w Hokum Boys
TTITLE3=Some Cold Rainey Day - w Chippie Hill
TTITLE4=Eagle Riding Papa - w The Famous Hokum Boys 
TTITLE5=Rollin' Mill Stomp 
TTITLE6=It's Tight Like That No. 2 - w Tampa Red
TTITLE7=My Texas Blues 
TTITLE8=Knife Man Blues 
TTITLE9=What You Gonna Do? - w Tampa Red
TTITLE10=Jive Man Blues - w Frankie Half Pint Jaxon 
TTITLE11=What Is It That Tastes Like Gravy - w Tampa Red 
TTITLE12=Hip Shakin' Strut - w Hokum Boys
TTITLE13=Don't Let Your Mouth Start Nothing Your Head Won't Stand - w 
TTITLE13=Stovepipe Johnson
TTITLE14=Blue Moanin' Blues 
TTITLE15=How About You 
TTITLE16=Christmas Time Blues - w Chippie Hill 
TTITLE17=What's That I Smell - w Jane Lucas
EXTD=william hale
EXTT0=
EXTT1=
EXTT2=
EXTT3=
EXTT4=
EXTT5=
EXTT6=
EXTT7=
EXTT8=
EXTT9=
EXTT10=
EXTT11=
EXTT12=
EXTT13=
EXTT14=
EXTT15=
EXTT16=
EXTT17=
PLAYORDER=
